<svg xmlns="http://www.w3.org/2000/svg" width="2400" height="1160" viewBox="0 0 2400 1160" role="img" aria-label="Terminal screenshot">
<title>Terminal screenshot</title>
<rect width="2400" height="1160" fill="#000000"/>
<svg width="2400" height="200" viewBox="0 0 2400 200" overflow="hidden" data-decoration="windowsTerminal">
<rect width="2400" height="200" fill="#2e2e2e"/>
<g transform="scale(5.12820512821) translate(0 0)">
<path d="M0 39H468" stroke="#292929"/>
<path d="M0 39H2Q7 39 7 34V15Q7 7 15 7H239Q247 7 247 15V34Q247 39 254 39Z" fill="#000000"/>
<g transform="translate(16 13)"><path d="M1 1h5l2 2h7a1 1 0 0 1 1 1v10H0V2a1 1 0 0 1 1-1" fill="#d89e13"/><path d="M0 5h16l-1 9H0Z" fill="#fcd53f"/></g>
<svg x="40" y="7" width="157" height="30" viewBox="0 0 157 30" overflow="hidden"><text x="0" y="19" fill="#ffffff" font-family="Segoe UI, sans-serif" font-size="12">Style gallery</text></svg>
<g fill="none" stroke-linecap="round" stroke-linejoin="round">
<path d="M221 17l6 6m0-6-6 6" stroke="#a0a0a0"/>
<path d="M265 20h8m-4-4v8" stroke="#cccccc"/>
<path d="M284 12v16" stroke="#454545"/>
<path d="M293 18l4 4 4-4" stroke="#cccccc"/>
<g stroke="#ffffff">
<path d="M349 20h10"/>
<rect x="395" y="15" width="9" height="9"/>
<path d="M441 15l10 10m0-10-10 10"/>
</g></g></g></svg>
<svg x="30" y="230" width="2340" height="900" viewBox="30 230 2340 900" overflow="hidden" data-terminal="true">
<g data-layer="backgrounds"><rect x="390" y="530" width="405" height="100" fill="#cccccc"/><rect x="30" y="730" width="135" height="100" fill="#0c0c0c"/><rect x="165" y="730" width="135" height="100" fill="#c50f1f"/><rect x="300" y="730" width="135" height="100" fill="#13a10e"/><rect x="435" y="730" width="135" height="100" fill="#c19c00"/><rect x="570" y="730" width="135" height="100" fill="#0037da"/><rect x="705" y="730" width="135" height="100" fill="#881798"/><rect x="840" y="730" width="135" height="100" fill="#3a96dd"/><rect x="975" y="730" width="135" height="100" fill="#cccccc"/><rect x="1110" y="730" width="135" height="100" fill="#767676"/><rect x="1245" y="730" width="135" height="100" fill="#e74856"/><rect x="1380" y="730" width="135" height="100" fill="#16c60c"/><rect x="1515" y="730" width="135" height="100" fill="#f9f1a5"/><rect x="1650" y="730" width="135" height="100" fill="#3b78ff"/><rect x="1785" y="730" width="135" height="100" fill="#b4009e"/><rect x="1920" y="730" width="135" height="100" fill="#61d6d6"/><rect x="2055" y="730" width="135" height="100" fill="#f2f2f2"/><rect x="165" y="830" width="135" height="100" fill="#00875f"/><rect x="300" y="830" width="135" height="100" fill="#00d787"/><rect x="435" y="830" width="135" height="100" fill="#5f00af"/><rect x="570" y="830" width="135" height="100" fill="#5f87d7"/><rect x="705" y="830" width="135" height="100" fill="#5fd7ff"/><rect x="840" y="830" width="135" height="100" fill="#875f00"/><rect x="975" y="830" width="135" height="100" fill="#87af5f"/><rect x="1110" y="830" width="135" height="100" fill="#87ff87"/><rect x="1245" y="830" width="135" height="100" fill="#af5faf"/><rect x="1380" y="830" width="135" height="100" fill="#afafd7"/><rect x="1515" y="830" width="135" height="100" fill="#afffff"/><rect x="1650" y="830" width="135" height="100" fill="#d78700"/><rect x="1785" y="830" width="135" height="100" fill="#d7d75f"/><rect x="1920" y="830" width="135" height="100" fill="#ff0087"/><rect x="2055" y="830" width="135" height="100" fill="#ff87af"/><rect x="30" y="930" width="135" height="100" fill="#080808"/><rect x="165" y="930" width="135" height="100" fill="#121212"/><rect x="300" y="930" width="135" height="100" fill="#1c1c1c"/><rect x="435" y="930" width="135" height="100" fill="#262626"/><rect x="570" y="930" width="135" height="100" fill="#303030"/><rect x="705" y="930" width="135" height="100" fill="#3a3a3a"/><rect x="840" y="930" width="135" height="100" fill="#444444"/><rect x="975" y="930" width="135" height="100" fill="#4e4e4e"/><rect x="1110" y="930" width="135" height="100" fill="#585858"/><rect x="1245" y="930" width="135" height="100" fill="#626262"/><rect x="1380" y="930" width="135" height="100" fill="#6c6c6c"/><rect x="1515" y="930" width="135" height="100" fill="#767676"/><rect x="1650" y="930" width="135" height="100" fill="#808080"/><rect x="1785" y="930" width="135" height="100" fill="#8a8a8a"/><rect x="1920" y="930" width="135" height="100" fill="#949494"/><rect x="2055" y="930" width="135" height="100" fill="#9e9e9e"/></g>
<g data-layer="text" font-family="JetBrains Mono, monospace" font-size="75" font-weight="400" font-variant-ligatures="none" style="font-feature-settings: 'liga' 0, 'calt' 0; white-space: pre" xml:space="preserve"><text x="30" y="306" textLength="45" lengthAdjust="spacingAndGlyphs" fill="#f9f1a5" font-weight="700">$</text><text x="75" y="306" textLength="1125" lengthAdjust="spacingAndGlyphs" fill="#cccccc">&#xA0;bun&#xA0;x&#xA0;vectorize-terminal</text><text x="30" y="506" textLength="180" lengthAdjust="spacingAndGlyphs" fill="#cccccc" font-weight="700">Bold</text><text x="300" y="506" textLength="270" lengthAdjust="spacingAndGlyphs" fill="#cccccc" font-style="italic">Italic</text><text x="660" y="506" textLength="405" lengthAdjust="spacingAndGlyphs" fill="#cccccc">Underline</text><path data-text-decoration="underline" d="M660 519h405" stroke="#cccccc" stroke-width="3.5"/><text x="1155" y="506" textLength="585" lengthAdjust="spacingAndGlyphs" fill="#cccccc">Strikethrough</text><path data-text-decoration="strikethrough" d="M1155 479h585" stroke="#cccccc" stroke-width="3.5"/><text x="30" y="606" textLength="270" lengthAdjust="spacingAndGlyphs" fill="#cccccc" opacity="0.5">Dimmed</text><text x="390" y="606" textLength="405" lengthAdjust="spacingAndGlyphs" fill="#000000">&#xA0;Inverse&#xA0;</text><text x="885" y="606" textLength="405" lengthAdjust="spacingAndGlyphs" fill="#67d6ff">Truecolor</text><text x="30" y="1106" textLength="45" lengthAdjust="spacingAndGlyphs" fill="#16c60c">✓</text><text x="75" y="1106" textLength="1035" lengthAdjust="spacingAndGlyphs" fill="#cccccc">&#xA0;Ready&#xA0;for&#xA0;your&#xA0;README.</text></g>
</svg>
</svg>
